<svg id="visual" viewBox="0 0 900 600" width="900" height="600" xmlns="http://www.w3.org/2000/svg" xmlns:xlink="http://www.w3.org/1999/xlink" version="1.1"><rect x="0" y="0" width="900" height="600" fill="#e7ecef"></rect><path d="M0 395L150 433L300 407L450 375L600 247L750 350L900 440L900 601L750 601L600 601L450 601L300 601L150 601L0 601Z" fill="#a3cef1"></path><path d="M0 481L150 507L300 475L450 328L600 484L750 425L900 298L900 601L750 601L600 601L450 601L300 601L150 601L0 601Z" fill="#91c1ce"></path><path d="M0 393L150 367L300 472L450 458L600 507L750 401L900 474L900 601L750 601L600 601L450 601L300 601L150 601L0 601Z" fill="#8fb0ad"></path><path d="M0 494L150 537L300 487L450 513L600 465L750 529L900 512L900 601L750 601L600 601L450 601L300 601L150 601L0 601Z" fill="#909e95"></path><path d="M0 541L150 533L300 517L450 529L600 570L750 527L900 564L900 601L750 601L600 601L450 601L300 601L150 601L0 601Z" fill="#8b8c89"></path></svg>