<svg id="visual" viewBox="0 0 900 675" xmlns="http://www.w3.org/2000/svg" xmlnsXlink="http://www.w3.org/1999/xlink" version="1.1"><rect x="0" y="0" fill="#999ebb"></rect><path d="M0 168L150 301L300 313L450 402L600 376L750 222L900 430L900 676L750 676L600 676L450 676L300 676L150 676L0 676Z" fill="#ffffff"></path><path d="M0 399L150 406L300 274L450 432L600 278L750 222L900 483L900 676L750 676L600 676L450 676L300 676L150 676L0 676Z" fill="#ebe3de"></path><path d="M0 403L150 421L300 491L450 397L600 479L750 369L900 399L900 676L750 676L600 676L450 676L300 676L150 676L0 676Z" fill="#d6c8bf"></path><path d="M0 445L150 469L300 512L450 532L600 513L750 407L900 418L900 676L750 676L600 676L450 676L300 676L150 676L0 676Z" fill="#c2aea0"></path><path d="M0 585L150 518L300 539L450 559L600 592L750 587L900 470L900 676L750 676L600 676L450 676L300 676L150 676L0 676Z" fill="#ae9581"></path><path d="M0 584L150 670L300 589L450 600L600 633L750 573L900 555L900 676L750 676L600 676L450 676L300 676L150 676L0 676Z" fill="#997c64"></path></svg>