<svg id="Layer_1" data-name="Layer 1" xmlns="http://www.w3.org/2000/svg" viewBox="0 0 280 280"><defs><style>.cls-1{fill:#9cceb6;}.cls-2{fill:#63b995;}.cls-3{fill:#cce4d7;}</style></defs><path class="cls-1" d="M63,189.53h0A8.9,8.9,0,0,1,61.59,177Q87,147.16,112.78,115q32.5-40.64,61.54-80a8.91,8.91,0,0,1,12.51-1.44h0A8.91,8.91,0,0,1,188.27,46q-31.87,38.93-63.74,77.86l-49,64.22A8.9,8.9,0,0,1,63,189.53Z"/><path class="cls-2" d="M63.07,236.6h0a11.55,11.55,0,0,1-1.87-16.23q33-38.76,66.44-80.53Q169.85,87.09,207.52,36a11.56,11.56,0,0,1,16.24-1.87h0a11.55,11.55,0,0,1,1.87,16.23L142.89,151.37q-31.8,41.69-63.59,83.36A11.55,11.55,0,0,1,63.07,236.6Z"/><path class="cls-3" d="M61.88,148h0a6.57,6.57,0,0,1-1.07-9.22q18.75-22,37.75-45.75,24-30,45.37-59A6.57,6.57,0,0,1,153.16,33h0a6.56,6.56,0,0,1,1.06,9.22l-47,57.4L71.1,147A6.56,6.56,0,0,1,61.88,148Z"/></svg>